<svg xmlns="http://www.w3.org/2000/svg" height="24" viewBox="0 -960 960 960" width="24">
<path d="M214-280q-29 0-45 13.5T121-245q-16 4-28.5-7T80-280q0-17 11.5-29.5T118-330q17-9 36.5-19.5T214-360q59 0 77.5 20t54.5 20q38 0 56.5-20t77.5-20q57 0 77.5 20t56.5 20q38 0 55.5-20t76.5-20q40 0 59.5 10.5T842-330q15 8 26.5 20.5T880-280q0 17-12 28t-28 7q-32-8-48.5-21.5T746-280q-36 0-54.5 20T614-240q-57 0-77.5-20T480-280q-38 0-56.5 20T346-240q-59 0-76.5-20T214-280Zm0-160q-29 0-45.5 13.5T120-405q-16 4-28-7t-12-28q0-17 11.5-29.5T118-490q17-9 36.5-19.5T214-520q57 0 76.5 20t55.5 20q38 0 56.5-20t77.5-20q57 0 77 20t55 20q38 0 56.5-20t77.5-20q38 0 58 10.5t37 19.5q16 8 27.5 20.5T880-440q0 17-12.5 28t-28.5 7q-32-8-48-21.5T746-440q-36 0-54.5 20T614-400q-57 0-77.5-20T480-440q-38 0-55.5 20T348-400q-59 0-78.5-20T214-440Zm0-160q-29 0-45.5 13.5T120-565q-16 4-28-7t-12-28q0-17 11.5-29.5T118-650q17-9 36.5-19.5T214-680q57 0 76.5 20t55.5 20q38 0 56.5-20t77.5-20q57 0 77 20t55 20q38 0 56.5-20t77.5-20q38 0 58 10.5t37 19.5q16 8 27.5 20.5T880-600q0 17-12.5 28t-28.5 7q-32-8-48-21.5T746-600q-36 0-54.5 20T614-560q-57 0-77.5-20T480-600q-38 0-55.5 20T348-560q-59 0-78.5-20T214-600Z"/></svg>