<svg width="2016.63" height="657.49" xmlns="http://www.w3.org/2000/svg">
 <defs>
  <radialGradient gradientUnits="userSpaceOnUse" r="335.7" fy="133.69" fx="507.05" cy="282.88" cx="370.67" id="radial-gradient">
   <stop stop-color="#5af9f9" offset="0.52"/>
   <stop stop-opacity="0.84" stop-color="#5af9f9" offset="0.56"/>
   <stop stop-opacity="0.62" stop-color="#5af9f9" offset="0.63"/>
   <stop stop-opacity="0.43" stop-color="#5af9f9" offset="0.69"/>
   <stop stop-opacity="0.28" stop-color="#5af9f9" offset="0.76"/>
   <stop stop-opacity="0.16" stop-color="#5af9f9" offset="0.82"/>
   <stop stop-opacity="0.07" stop-color="#5af9f9" offset="0.88"/>
   <stop stop-opacity="0.02" stop-color="#5af9f9" offset="0.94"/>
   <stop stop-opacity="0" stop-color="#5af9f9" offset="1"/>
  </radialGradient>
 </defs>
 <g>
  <title>Layer 1</title>
  <g id="svg_1">
   <path id="svg_2" fill="url(#radial-gradient)" d="m110.82,12.92c75,29.74 196.38,88.85 313.75,203.17c126.89,123.6 190.35,254.54 220.84,331.42c-146.63,146.63 -387.96,146.63 -534.59,0c-147.76,-147.76 -147.76,-386.83 0,-534.59z" class="cls-2"/>
   <path id="svg_3" fill="#fff" d="m439.05,201.61c72.89,71.01 124.82,144.42 161.63,208.62c81.77,-98.38 76.57,-244.66 -15.67,-336.9c-92.24,-92.24 -238.5,-97.44 -336.89,-15.7c59.1,33.87 125.63,80.37 190.93,143.97l0,0.01z" class="cls-1"/>
  </g>
  <g id="svg_5">
   <path id="svg_6" fill="#fff" d="m805.82,383.68c-17.53,0 -32.01,-2.92 -43.41,-8.77c-11.41,-5.84 -19.9,-13.57 -25.46,-23.17c-5.57,-9.6 -8.35,-20.1 -8.35,-31.52c0,-20.04 7.79,-35.9 23.38,-47.59c15.58,-11.69 37.84,-17.53 66.79,-17.53l54.27,0l0,-3.76c0,-16.14 -4.38,-28.24 -13.15,-36.32c-8.77,-8.07 -20.11,-12.11 -34.02,-12.11c-12.25,0 -22.89,2.99 -31.93,8.97c-9.05,5.99 -14.55,14.82 -16.49,26.51l-44.25,0c1.39,-15.03 6.47,-27.9 15.24,-38.61c8.77,-10.71 19.89,-18.92 33.4,-24.63c13.5,-5.7 28.31,-8.56 44.46,-8.56c28.94,0 51.35,7.58 67.21,22.75c15.86,15.17 23.79,35.83 23.79,61.99l0,127.32l-38.4,0l-3.76,-35.48c-5.84,11.41 -14.34,21.02 -25.46,28.8c-11.13,7.79 -25.74,11.69 -43.83,11.69l-0.03,0.02zm8.77,-35.9c11.96,0 22.05,-2.85 30.26,-8.56c8.21,-5.7 14.61,-13.28 19.2,-22.75c4.59,-9.46 7.44,-19.89 8.56,-31.31l-49.26,0c-17.53,0 -29.99,3.06 -37.36,9.18c-7.38,6.12 -11.06,13.78 -11.06,22.96s3.55,16.91 10.64,22.33c7.1,5.43 16.76,8.14 29.01,8.14l0.01,0.01z" class="cls-1"/>
   <path id="svg_7" fill="#fff" d="m1067.13,383.68c-20.32,0 -38.48,-4.59 -54.48,-13.78c-16.01,-9.18 -28.53,-21.92 -37.57,-38.2c-9.05,-16.28 -13.57,-35.13 -13.57,-56.56s4.52,-40.28 13.57,-56.56c9.04,-16.28 21.56,-29.01 37.57,-38.2c16,-9.18 34.16,-13.77 54.48,-13.77c25.6,0 47.1,6.68 64.5,20.04c17.39,13.36 28.59,31.45 33.6,54.27l-46.34,0c-2.78,-11.41 -8.91,-20.31 -18.37,-26.72c-9.46,-6.4 -20.6,-9.6 -33.4,-9.6c-10.85,0 -20.87,2.71 -30.06,8.14c-9.18,5.43 -16.56,13.36 -22.12,23.79c-5.57,10.44 -8.35,23.31 -8.35,38.61s2.78,28.18 8.35,38.61c5.56,10.44 12.94,18.44 22.12,24c9.18,5.57 19.2,8.35 30.06,8.35c12.8,0 23.93,-3.2 33.4,-9.6c9.46,-6.4 15.58,-15.44 18.37,-27.13l46.34,0c-4.74,22.27 -15.86,40.22 -33.4,53.85c-17.53,13.64 -39.1,20.46 -64.7,20.46z" class="cls-1"/>
   <path id="svg_8" fill="#fff" d="m1213.23,378.67l0,-207.05l39.66,0l3.76,39.24c7.23,-13.63 17.32,-24.42 30.26,-32.35c12.94,-7.93 28.6,-11.9 46.96,-11.9l0,46.34l-12.11,0c-12.25,0 -23.17,2.02 -32.77,6.05c-9.6,4.04 -17.26,10.86 -22.96,20.46c-5.71,9.6 -8.56,22.89 -8.56,39.87l0,99.35l-44.25,0l0.01,-0.01z" class="cls-1"/>
   <path id="svg_9" fill="#fff" d="m1462.86,383.68c-19.76,0 -37.5,-4.53 -53.22,-13.57c-15.73,-9.04 -28.18,-21.71 -37.36,-37.99c-9.18,-16.28 -13.78,-35.28 -13.78,-56.98s4.66,-40.7 13.98,-56.98c9.32,-16.28 21.92,-28.94 37.78,-37.99c15.86,-9.04 33.53,-13.57 53.01,-13.57s37.5,4.53 53.22,13.57c15.72,9.05 28.24,21.71 37.57,37.99c9.32,16.28 13.98,35.27 13.98,56.98s-4.66,40.7 -13.98,56.98c-9.33,16.28 -21.92,28.95 -37.78,37.99c-15.86,9.04 -33.68,13.57 -53.43,13.57l0.01,0zm0,-37.99c10.57,0 20.38,-2.64 29.43,-7.93c9.04,-5.28 16.35,-13.15 21.91,-23.58c5.57,-10.44 8.35,-23.44 8.35,-39.03s-2.72,-28.59 -8.14,-39.03s-12.67,-18.3 -21.71,-23.59c-9.05,-5.28 -18.86,-7.93 -29.43,-7.93s-20.39,2.65 -29.43,7.93c-9.05,5.29 -16.35,13.15 -21.92,23.59c-5.57,10.44 -8.35,23.45 -8.35,39.03s2.78,28.6 8.35,39.03c5.57,10.43 12.8,18.3 21.71,23.58c8.9,5.29 18.64,7.93 29.22,7.93l0.01,0z" class="cls-1"/>
   <path id="svg_10" fill="#fff" d="m1698.72,383.68c-26.16,0 -47.73,-6.4 -64.71,-19.2c-16.98,-12.8 -26.71,-29.78 -29.22,-50.93l44.67,0c2.23,9.46 7.51,17.6 15.86,24.42c8.35,6.82 19.34,10.23 32.98,10.23s23.1,-2.78 29.22,-8.35c6.12,-5.56 9.18,-11.96 9.18,-19.2c0,-10.57 -4.25,-17.74 -12.73,-21.5c-8.49,-3.76 -20.25,-7.16 -35.28,-10.23c-11.69,-2.5 -23.31,-5.84 -34.86,-10.02c-11.55,-4.17 -21.15,-10.08 -28.8,-17.74c-7.66,-7.65 -11.48,-18.02 -11.48,-31.1c0,-18.09 6.95,-33.19 20.87,-45.29c13.91,-12.1 33.39,-18.16 58.44,-18.16c23.1,0 41.81,5.57 56.15,16.7c14.33,11.13 22.75,26.86 25.26,47.17l-42.58,0c-1.4,-8.9 -5.5,-15.86 -12.31,-20.87c-6.82,-5.01 -15.94,-7.51 -27.34,-7.51s-19.76,2.29 -25.88,6.89c-6.13,4.59 -9.19,10.51 -9.19,17.74s4.24,12.94 12.73,17.12c8.49,4.17 19.69,7.93 33.6,11.27c13.91,3.07 26.78,6.61 38.61,10.65c11.83,4.04 21.36,9.95 28.6,17.74c7.23,7.79 10.85,19.2 10.85,34.23c0.27,18.93 -7.03,34.65 -21.92,47.17c-14.89,12.52 -35.14,18.79 -60.74,18.79l0.02,-0.02z" class="cls-1"/>
   <path id="svg_11" fill="#fff" d="m1912.45,383.68c-26.16,0 -47.73,-6.4 -64.7,-19.2c-16.98,-12.8 -26.72,-29.78 -29.22,-50.93l44.67,0c2.22,9.46 7.51,17.6 15.86,24.42c8.35,6.82 19.34,10.23 32.98,10.23s23.1,-2.78 29.22,-8.35c6.12,-5.56 9.19,-11.96 9.19,-19.2c0,-10.57 -4.25,-17.74 -12.73,-21.5c-8.49,-3.76 -20.25,-7.16 -35.27,-10.23c-11.69,-2.5 -23.31,-5.84 -34.86,-10.02c-11.55,-4.17 -21.15,-10.08 -28.81,-17.74c-7.66,-7.65 -11.48,-18.02 -11.48,-31.1c0,-18.09 6.95,-33.19 20.87,-45.29c13.91,-12.1 33.39,-18.16 58.44,-18.16c23.1,0 41.81,5.57 56.14,16.7c14.33,11.13 22.75,26.86 25.26,47.17l-42.58,0c-1.39,-8.9 -5.5,-15.86 -12.31,-20.87c-6.82,-5.01 -15.93,-7.51 -27.34,-7.51s-19.77,2.29 -25.88,6.89c-6.12,4.59 -9.18,10.51 -9.18,17.74s4.24,12.94 12.73,17.12c8.49,4.17 19.69,7.93 33.6,11.27c13.91,3.07 26.78,6.61 38.62,10.65c11.83,4.04 21.36,9.95 28.59,17.74c7.24,7.79 10.86,19.2 10.86,34.23c0.27,18.93 -7.03,34.65 -21.92,47.17c-14.89,12.52 -35.14,18.79 -60.74,18.79l-0.01,-0.02z" class="cls-1"/>
  </g>
 </g>
</svg>