<?xml version="1.0" encoding="utf-8"?>
<!-- Generator: Adobe Illustrator 26.4.1, SVG Export Plug-In . SVG Version: 6.00 Build 0)  -->
<svg version="1.1" id="Layer_1" xmlns="http://www.w3.org/2000/svg" xmlns:xlink="http://www.w3.org/1999/xlink" x="0px" y="0px"
	 viewBox="0 0 1920 1080" style="enable-background:new 0 0 1920 1080;" xml:space="preserve">
<style type="text/css">
	.st0{fill:none;stroke:#5AF9F9;stroke-width:8.0977;stroke-miterlimit:10;}
	.st1{fill:#5AF9F9;}
	.st2{fill:#ffffff;}
	.st3{fill:none;stroke:#ffffff;stroke-width:5;stroke-miterlimit:10;}
</style>
<g>
	<path class="st0" d="M545.7,421.9h-43c-8,0-14.4,6.4-14.4,14.4v0c0,8,6.4,14.4,14.4,14.4h43c8,0,14.4-6.4,14.4-14.4v0
		C560.1,428.4,553.6,421.9,545.7,421.9z"/>
	<path class="st0" d="M581.6,600h-78.9c-8,0-14.4,6.4-14.4,14.4l0,0c0,8,6.4,14.4,14.4,14.4h78.9c8,0,14.4-6.4,14.4-14.4l0,0
		C596,606.5,589.5,600,581.6,600z"/>
	<g>
		<path class="st1" d="M640.6,540.7h-78.9c-8,0-14.4,6.4-14.4,14.4l0,0c0,8,6.4,14.4,14.4,14.4h78.9c8,0,14.4-6.4,14.4-14.4l0,0
			C655,547.1,648.5,540.7,640.6,540.7z"/>
		<path class="st1" d="M1521,540.7h-186c-8,0-14.4,6.4-14.4,14.4l0,0c0,8,6.4,14.4,14.4,14.4h186c8,0,14.4-6.4,14.4-14.4l0,0
			C1535.4,547.1,1529,540.7,1521,540.7z"/>
		<path class="st2" d="M776.2,540.7h-78.9c-8,0-14.4,6.4-14.4,14.4l0,0c0,8,6.4,14.4,14.4,14.4h78.9c8,0,14.4-6.4,14.4-14.4l0,0
			C790.6,547.1,784.1,540.7,776.2,540.7z"/>
		<path class="st2" d="M1278.2,540.7H832.9c-8,0-14.4,6.4-14.4,14.4l0,0c0,8,6.4,14.4,14.4,14.4h445.3c8,0,14.4-6.4,14.4-14.4l0,0
			C1292.6,547.1,1286.2,540.7,1278.2,540.7z"/>
	</g>
	<g>
		<path class="st1" d="M640.6,481.3h-78.9c-8,0-14.4,6.4-14.4,14.4v0c0,8,6.4,14.4,14.4,14.4h78.9c8,0,14.4-6.4,14.4-14.4v0
			C655,487.7,648.5,481.3,640.6,481.3z"/>
		<path class="st1" d="M724.9,481.3h-32.7c-8,0-14.4,6.4-14.4,14.4v0c0,8,6.4,14.4,14.4,14.4h32.7c8,0,14.4-6.4,14.4-14.4v0
			C739.3,487.7,732.9,481.3,724.9,481.3z"/>
		<path class="st1" d="M1149.5,481.3h-94c-8,0-14.4,6.4-14.4,14.4v0c0,8,6.4,14.4,14.4,14.4h94c8,0,14.4-6.4,14.4-14.4v0
			C1163.9,487.7,1157.5,481.3,1149.5,481.3z"/>
		<path class="st1" d="M1585.1,481.3h-383.9c-8,0-14.4,6.4-14.4,14.4v0c0,8,6.4,14.4,14.4,14.4h383.9c8,0,14.4-6.4,14.4-14.4v0
			C1599.5,487.7,1593,481.3,1585.1,481.3z"/>
		<path class="st2" d="M1003.9,481.3H776.5c-8,0-14.4,6.4-14.4,14.4v0c0,8,6.4,14.4,14.4,14.4h227.4c8,0,14.4-6.4,14.4-14.4v0
			C1018.3,487.7,1011.9,481.3,1003.9,481.3z"/>
	</g>
</g>
<g>
	<path class="st0" d="M545.7,117.9h-43c-8,0-14.4,6.4-14.4,14.4v0c0,8,6.4,14.4,14.4,14.4h43c8,0,14.4-6.4,14.4-14.4v0
		C560.1,124.4,553.6,117.9,545.7,117.9z"/>
	<path class="st0" d="M581.6,296.1h-78.9c-8,0-14.4,6.4-14.4,14.4l0,0c0,8,6.4,14.4,14.4,14.4h78.9c8,0,14.4-6.4,14.4-14.4l0,0
		C596,302.5,589.5,296.1,581.6,296.1z"/>
	<g>
		<path class="st1" d="M776.7,236.7h-214c-8,0-14.4,6.4-14.4,14.4v0c0,8,6.4,14.4,14.4,14.4h214c8,0,14.4-6.4,14.4-14.4v0
			C791.1,243.1,784.6,236.7,776.7,236.7z"/>
		<path class="st1" d="M934.3,178h-61.6c-8,0-14.4,6.4-14.4,14.4v0c0,8,6.4,14.4,14.4,14.4h61.6c8,0,14.4-6.4,14.4-14.4v0
			C948.7,184.4,942.3,178,934.3,178z"/>
		<path class="st2" d="M1032.9,236.7H844.8c-8,0-14.4,6.4-14.4,14.4v0c0,8,6.4,14.4,14.4,14.4h188.1c8,0,14.4-6.4,14.4-14.4v0
			C1047.3,243.1,1040.8,236.7,1032.9,236.7z"/>
	</g>
	<g>
		<path class="st2" d="M677.4,177.3H562.7c-8,0-14.4,6.4-14.4,14.4v0c0,8,6.4,14.4,14.4,14.4h114.8c8,0,14.4-6.4,14.4-14.4v0
			C691.8,183.8,685.4,177.3,677.4,177.3z"/>
		<path class="st2" d="M814.2,177.3H737c-8,0-14.4,6.4-14.4,14.4v0c0,8,6.4,14.4,14.4,14.4h77.2c8,0,14.4-6.4,14.4-14.4v0
			C828.6,183.8,822.2,177.3,814.2,177.3z"/>
	</g>
</g>
<path class="st3" d="M985.3,92.4H490.2c-72.4,0-131.1,58.7-131.1,131.1v0c0,72.4,58.7,131.1,131.1,131.1h495.1
	c72.4,0,131.1-58.7,131.1-131.1v0C1116.4,151.1,1057.7,92.4,985.3,92.4z"/>
<path class="st3" d="M1538.7,394.3H490.2c-72.4,0-131.1,58.7-131.1,131.1v0c0,72.4,58.7,131.1,131.1,131.1h1048.4
	c72.4,0,131.1-58.7,131.1-131.1v0C1669.8,453,1611.1,394.3,1538.7,394.3z"/>
<g>
	<path class="st0" d="M545.7,722.7h-43c-8,0-14.4,6.4-14.4,14.4l0,0c0,8,6.4,14.4,14.4,14.4h43c8,0,14.4-6.4,14.4-14.4l0,0
		C560.1,729.2,553.6,722.7,545.7,722.7z"/>
	<path class="st0" d="M581.6,960.2h-78.9c-8,0-14.4,6.4-14.4,14.4v0c0,8,6.4,14.4,14.4,14.4h78.9c8,0,14.4-6.4,14.4-14.4v0
		C596,966.6,589.5,960.2,581.6,960.2z"/>
	<g>
		<path class="st2" d="M574.7,782.1h-13.1c-8,0-14.4,6.4-14.4,14.4l0,0c0,8,6.4,14.4,14.4,14.4h13.1c8,0,14.4-6.4,14.4-14.4l0,0
			C589.1,788.5,582.7,782.1,574.7,782.1z"/>
		<path class="st1" d="M722.9,782.1H621.8c-8,0-14.4,6.4-14.4,14.4l0,0c0,8,6.4,14.4,14.4,14.4h101.2c8,0,14.4-6.4,14.4-14.4l0,0
			C737.3,788.5,730.9,782.1,722.9,782.1z"/>
		<path class="st2" d="M1045.8,782.1h-66.9c-8,0-14.4,6.4-14.4,14.4l0,0c0,8,6.4,14.4,14.4,14.4h66.9c8,0,14.4-6.4,14.4-14.4l0,0
			C1060.2,788.5,1053.7,782.1,1045.8,782.1z"/>
		<path class="st1" d="M931.8,782.1H770c-8,0-14.4,6.4-14.4,14.4l0,0c0,8,6.4,14.4,14.4,14.4h161.8c8,0,14.4-6.4,14.4-14.4l0,0
			C946.2,788.5,939.8,782.1,931.8,782.1z"/>
	</g>
	<g>
		<path class="st2" d="M1160.4,841.5H953.5c-8,0-14.4,6.4-14.4,14.4l0,0c0,8,6.4,14.4,14.4,14.4h206.9c8,0,14.4-6.4,14.4-14.4l0,0
			C1174.8,847.9,1168.3,841.5,1160.4,841.5z"/>
		<path class="st2" d="M604.7,841.5h-43c-8,0-14.4,6.4-14.4,14.4l0,0c0,8,6.4,14.4,14.4,14.4h43c8,0,14.4-6.4,14.4-14.4l0,0
			C619.1,847.9,612.6,841.5,604.7,841.5z"/>
		<path class="st1" d="M901.5,841.5h-84.9c-8,0-14.4,6.4-14.4,14.4l0,0c0,8,6.4,14.4,14.4,14.4h84.9c8,0,14.4-6.4,14.4-14.4l0,0
			C915.9,847.9,909.5,841.5,901.5,841.5z"/>
		<path class="st2" d="M764.6,841.5h-108c-8,0-14.4,6.4-14.4,14.4l0,0c0,8,6.4,14.4,14.4,14.4h108c8,0,14.4-6.4,14.4-14.4l0,0
			C779,847.9,772.6,841.5,764.6,841.5z"/>
	</g>
	<g>
		<path class="st1" d="M1082.2,900.8H827.4c-8,0-14.4,6.4-14.4,14.4v0c0,8,6.4,14.4,14.4,14.4h254.9c8,0,14.4-6.4,14.4-14.4v0
			C1096.6,907.3,1090.2,900.8,1082.2,900.8z"/>
		<path class="st2" d="M676.5,900.8H561.7c-8,0-14.4,6.4-14.4,14.4v0c0,8,6.4,14.4,14.4,14.4h114.8c8,0,14.4-6.4,14.4-14.4v0
			C690.9,907.3,684.4,900.8,676.5,900.8z"/>
		<path class="st2" d="M773.4,900.8h-43c-8,0-14.4,6.4-14.4,14.4v0c0,8,6.4,14.4,14.4,14.4h43c8,0,14.4-6.4,14.4-14.4v0
			C787.8,907.3,781.4,900.8,773.4,900.8z"/>
	</g>
</g>
<path class="st3" d="M1096.1,696.2H515.4c-86.3,0-156.3,70-156.3,156.3v0c0,86.3,70,156.3,156.3,156.3h580.6
	c86.3,0,156.3-70,156.3-156.3v0C1252.4,766.1,1182.4,696.2,1096.1,696.2z"/>
</svg>
